<?xml version="1.0" standalone="no"?>
<!DOCTYPE svg PUBLIC "-//W3C//DTD SVG 20010904//EN"
 "http://www.w3.org/TR/2001/REC-SVG-20010904/DTD/svg10.dtd">
<svg version="1.0" xmlns="http://www.w3.org/2000/svg"
 width="1440.000000pt" height="1440.000000pt" viewBox="0 0 1440.000000 1440.000000"
 preserveAspectRatio="xMidYMid meet">
<metadata>
Created by potrace 1.14, written by Peter Selinger 2001-2017
</metadata>
<g transform="translate(0.000000,1440.000000) scale(0.100000,-0.100000)"
fill="#000000" stroke="none">
<path d="M6658 9995 c-2 -2 -86 -6 -188 -10 -102 -4 -207 -8 -235 -10 -27 -2
-97 -6 -154 -9 -57 -4 -127 -9 -155 -11 -28 -2 -87 -7 -131 -10 -146 -10 -209
-16 -265 -21 -30 -3 -68 -7 -85 -9 -94 -9 -165 -16 -205 -21 -25 -3 -61 -7
-80 -9 -55 -5 -132 -15 -170 -21 -19 -3 -53 -7 -75 -9 -22 -1 -55 -6 -74 -9
-19 -4 -53 -9 -75 -11 -23 -2 -67 -9 -100 -14 -32 -6 -61 -10 -65 -9 -3 0 -8
-1 -11 -2 -10 -4 -47 -9 -100 -16 -30 -3 -58 -8 -61 -10 -3 -1 -28 -6 -55 -10
-27 -3 -58 -8 -69 -10 -28 -6 -69 -13 -107 -19 -18 -3 -44 -8 -58 -10 -14 -3
-36 -8 -50 -10 -14 -3 -41 -8 -60 -11 -19 -3 -51 -9 -70 -14 -19 -5 -52 -11
-72 -14 -54 -8 -384 -82 -523 -117 -66 -17 -131 -33 -145 -36 -41 -8 -55 -11
-57 -13 -2 -2 -6 -3 -10 -4 -26 -7 -115 -32 -223 -62 -69 -20 -132 -37 -140
-39 -8 -2 -28 -9 -45 -15 -16 -5 -140 -47 -275 -91 -135 -45 -249 -85 -255
-89 -8 -6 -95 -38 -125 -45 -3 -1 -23 -10 -45 -19 -94 -41 -111 -48 -135 -58
-25 -10 -55 -23 -115 -48 -16 -7 -37 -16 -45 -21 -8 -5 -22 -12 -30 -15 -68
-24 -502 -249 -540 -279 -8 -7 -35 -23 -60 -36 -25 -13 -47 -26 -50 -29 -3 -3
-45 -31 -94 -64 -49 -32 -94 -62 -100 -67 -6 -5 -45 -35 -86 -65 -41 -31 -76
-60 -78 -65 -2 -5 -7 -9 -12 -9 -4 0 -25 -15 -46 -32 -47 -40 -271 -264 -299
-298 -83 -105 -195 -269 -195 -287 0 -5 -5 -14 -11 -20 -13 -13 -51 -99 -84
-193 -20 -57 -27 -81 -42 -150 -27 -128 -24 -361 7 -468 5 -18 7 -32 5 -32 -2
0 3 -16 11 -35 8 -19 15 -38 15 -42 1 -5 5 -18 10 -31 5 -13 9 -26 9 -29 0 -7
28 -72 43 -98 6 -11 17 -33 26 -50 38 -77 132 -215 211 -310 37 -45 280 -286
280 -278 0 4 9 -3 20 -14 61 -66 441 -333 550 -386 8 -4 51 -28 95 -53 95 -54
387 -200 465 -233 30 -13 73 -31 95 -41 134 -60 579 -228 651 -245 19 -5 195
-61 224 -72 18 -7 4 -3 160 -48 164 -48 199 -57 430 -115 189 -48 233 -58 275
-65 11 -1 49 -10 85 -19 75 -18 203 -45 242 -51 14 -2 62 -11 105 -20 43 -9
89 -18 103 -19 14 -2 36 -6 50 -9 14 -4 39 -8 55 -11 27 -4 152 -25 245 -41
19 -3 42 -6 50 -7 8 0 36 -4 62 -9 26 -5 69 -11 96 -14 27 -3 59 -8 73 -10 13
-3 49 -8 79 -11 30 -3 58 -7 61 -10 3 -2 44 -6 90 -10 46 -3 87 -8 90 -10 4
-2 37 -6 75 -9 38 -3 76 -8 84 -10 8 -2 51 -7 95 -11 44 -4 91 -8 105 -10 50
-5 156 -15 225 -20 39 -3 90 -7 115 -9 79 -7 172 -13 445 -30 340 -21 1325
-28 1680 -12 242 11 446 23 570 32 39 3 97 7 130 10 100 7 218 17 255 21 19 2
60 6 90 9 30 3 75 7 100 10 91 10 136 15 175 20 22 3 65 7 95 10 30 3 66 8 80
10 14 3 51 7 83 10 32 4 68 8 80 11 12 3 40 7 62 9 22 3 74 10 115 16 41 7 84
13 95 15 49 7 102 15 125 20 27 5 55 10 110 18 19 3 47 8 63 11 15 3 39 7 55
10 15 3 43 8 62 10 19 3 46 8 60 12 14 3 36 7 50 9 14 2 45 8 70 13 25 6 57
13 73 15 15 3 35 7 45 10 9 3 34 7 56 11 21 3 41 7 45 9 3 2 24 7 46 10 22 4
58 12 80 18 22 6 50 12 62 13 11 2 30 6 41 9 11 4 30 9 41 11 40 9 57 13 141
35 96 24 113 28 138 34 41 10 176 47 292 81 69 20 132 38 140 40 14 3 357 117
440 146 361 127 1015 427 1140 524 8 7 35 23 60 36 25 13 47 26 50 29 3 3 39
27 80 54 87 56 277 198 341 253 129 113 305 300 369 392 14 19 33 44 43 55 9
11 17 26 17 33 0 7 5 13 10 13 6 0 10 4 10 9 0 5 16 34 35 66 41 70 92 187
117 275 36 123 42 168 42 315 1 128 -5 189 -28 273 -8 28 -11 52 -8 52 3 0 1
5 -6 12 -7 7 -12 18 -12 26 0 8 -7 30 -15 50 -22 51 -119 246 -126 252 -3 3
-20 28 -39 55 -65 98 -145 192 -266 313 -67 67 -125 122 -129 122 -3 0 -17 11
-30 24 -14 14 -42 37 -62 53 -21 15 -40 31 -43 34 -16 19 -300 209 -425 284
-111 67 -397 214 -535 275 -63 28 -129 57 -145 65 -17 8 -64 27 -105 44 -41
16 -88 35 -105 42 -16 7 -34 13 -40 15 -5 2 -41 15 -80 30 -142 54 -435 153
-435 147 0 -3 -6 0 -13 6 -8 6 -22 12 -33 14 -10 2 -46 12 -79 21 -33 10 -64
20 -70 21 -5 1 -14 4 -20 6 -74 23 -266 79 -290 83 -5 1 -19 5 -30 9 -11 3
-31 8 -45 11 -14 3 -40 9 -57 15 -18 5 -33 8 -33 5 0 -3 -8 0 -19 5 -10 6 -33
13 -52 16 -19 3 -61 12 -94 21 -72 17 -96 23 -155 35 -53 11 -64 13 -155 34
-38 9 -85 18 -104 20 -18 3 -36 7 -40 9 -3 3 -25 7 -47 10 -22 4 -51 9 -64 12
-14 3 -41 8 -60 10 -19 3 -42 8 -50 10 -8 3 -33 8 -55 10 -56 7 -83 12 -92 17
-5 3 -32 8 -61 11 -29 3 -63 8 -75 11 -25 5 -86 14 -137 21 -19 2 -45 6 -57 9
-12 3 -41 7 -65 10 -24 3 -61 8 -83 11 -22 4 -54 8 -70 9 -17 1 -44 5 -60 9
-28 5 -77 11 -170 21 -22 2 -54 6 -70 9 -17 3 -57 8 -90 11 -61 5 -121 11
-210 21 -90 9 -119 12 -215 19 -52 3 -106 8 -120 10 -14 3 -72 7 -130 10 -58
4 -125 8 -150 10 -25 2 -108 6 -185 10 -77 3 -171 8 -210 11 -75 6 -1282 14
-1287 9z"/>
</g>
</svg>
